<svg width="177" height="24" viewBox="0 0 177 24" fill="none" xmlns="http://www.w3.org/2000/svg">
<path d="M7.132 23.392C6.46 23.392 5.82533 23.3453 5.228 23.252C4.64933 23.1773 4.09867 23.0373 3.576 22.832C3.31467 22.72 3.09067 22.636 2.904 22.58C2.736 22.5053 2.624 22.468 2.568 22.468C2.43733 22.468 2.30667 22.496 2.176 22.552C2.064 22.5893 1.96133 22.6267 1.868 22.664C1.73733 22.7387 1.60667 22.8133 1.476 22.888C1.364 22.9627 1.27067 23 1.196 23C1.084 23 0.953333 22.9253 0.804 22.776C0.636 22.6267 0.552 22.4867 0.552 22.356C0.552 22.2067 0.654667 21.908 0.86 21.46C1.06533 21.012 1.28 20.4613 1.504 19.808C1.74667 19.1547 1.91467 18.4733 2.008 17.764C2.12 17.148 2.36267 16.84 2.736 16.84C2.97867 16.84 3.128 16.9893 3.184 17.288C3.24 17.568 3.268 18.0067 3.268 18.604C3.268 19.2013 3.38933 19.7893 3.632 20.368C3.87467 20.928 4.248 21.3853 4.752 21.74C5.27467 22.0947 5.928 22.272 6.712 22.272C7.832 22.272 8.7 21.9733 9.316 21.376C9.95067 20.7787 10.268 20.032 10.268 19.136C10.268 18.7253 10.1933 18.3427 10.044 17.988C9.89467 17.6147 9.624 17.204 9.232 16.756C8.84 16.308 8.26133 15.748 7.496 15.076C6.6 14.2733 5.91867 13.4893 5.452 12.724C4.98533 11.9587 4.752 11.016 4.752 9.896C4.752 8.85067 5.04133 7.91733 5.62 7.096C6.19867 6.27467 6.98267 5.62133 7.972 5.136C8.98 4.65067 10.128 4.408 11.416 4.408C12.0507 4.408 12.6293 4.464 13.152 4.576C13.6933 4.688 14.1693 4.80933 14.58 4.94C14.9533 5.052 15.252 5.14533 15.476 5.22C15.7 5.276 15.924 5.304 16.148 5.304C16.4093 5.304 16.6427 5.248 16.848 5.136C16.9787 5.06133 17.1093 5.00533 17.24 4.968C17.3707 4.912 17.492 4.884 17.604 4.884C17.8093 4.884 17.9307 4.94933 17.968 5.08C18.0053 5.21067 17.968 5.35067 17.856 5.5C17.6507 5.76133 17.4267 6.13467 17.184 6.62C16.9413 7.10533 16.7173 7.63733 16.512 8.216C16.3067 8.776 16.1293 9.34533 15.98 9.924C15.924 10.1293 15.8493 10.2973 15.756 10.428C15.6627 10.5587 15.5227 10.624 15.336 10.624C15.168 10.624 15.0373 10.5307 14.944 10.344C14.8693 10.1573 14.832 9.868 14.832 9.476C14.832 8.244 14.524 7.27333 13.908 6.564C13.3107 5.836 12.5173 5.472 11.528 5.472C10.8747 5.472 10.3147 5.62133 9.848 5.92C9.4 6.2 9.064 6.57333 8.84 7.04C8.616 7.488 8.504 7.94533 8.504 8.412C8.504 8.86 8.57867 9.27067 8.728 9.644C8.87733 9.99867 9.13867 10.3813 9.512 10.792C9.904 11.2027 10.4733 11.7253 11.22 12.36C12.34 13.2933 13.1053 14.152 13.516 14.936C13.9267 15.72 14.132 16.5787 14.132 17.512C14.132 18.464 13.852 19.3973 13.292 20.312C12.732 21.208 11.9293 21.9453 10.884 22.524C9.85733 23.1027 8.60667 23.392 7.132 23.392ZM15.2343 23.168C15.0476 23.168 14.8889 23.1213 14.7583 23.028C14.6089 22.9347 14.5436 22.8227 14.5623 22.692C14.6556 22.3933 14.9636 22.1973 15.4863 22.104C16.2329 21.9547 16.7463 21.7587 17.0263 21.516C17.3249 21.2733 17.5676 20.8533 17.7543 20.256L21.6743 7.572C21.8609 6.956 21.8703 6.52667 21.7023 6.284C21.5343 6.04133 21.1143 5.836 20.4423 5.668C20.2743 5.63067 20.1529 5.584 20.0783 5.528C20.0223 5.45333 19.9943 5.35067 19.9943 5.22C19.9943 5.07067 20.0783 4.94 20.2463 4.828C20.4329 4.716 20.6569 4.66 20.9183 4.66C21.2543 4.66 21.6369 4.66933 22.0663 4.688C22.5143 4.70667 22.9623 4.73467 23.4103 4.772C23.8583 4.79067 24.2689 4.8 24.6423 4.8C24.9969 4.8 25.4076 4.79067 25.8743 4.772C26.3596 4.75333 26.8449 4.73467 27.3303 4.716C27.8156 4.69733 28.2636 4.688 28.6743 4.688C28.9729 4.688 29.1223 4.79067 29.1223 4.996C29.1223 5.20133 29.0289 5.35067 28.8423 5.444C28.6743 5.53733 28.4876 5.612 28.2823 5.668C27.7409 5.81733 27.3209 5.96667 27.0223 6.116C26.7236 6.24667 26.4996 6.43333 26.3503 6.676C26.2009 6.9 26.0703 7.208 25.9583 7.6L24.3903 12.64C24.3529 12.8267 24.3623 12.948 24.4183 13.004C24.4929 13.06 24.6236 13.088 24.8103 13.088C25.1649 13.088 25.5383 12.976 25.9303 12.752C26.3409 12.528 26.7703 12.2013 27.2183 11.772L31.6703 7.572C31.8756 7.36667 32.0436 7.18933 32.1743 7.04C32.3236 6.872 32.4169 6.72267 32.4543 6.592C32.5103 6.40533 32.4169 6.24667 32.1743 6.116C31.9503 5.96667 31.6983 5.864 31.4183 5.808C31.1943 5.752 31.0356 5.68667 30.9423 5.612C30.8489 5.51867 30.8023 5.39733 30.8023 5.248C30.8023 5.08 30.8769 4.95867 31.0263 4.884C31.1756 4.80933 31.3436 4.772 31.5303 4.772H33.6303C34.5636 4.772 35.4596 4.76267 36.3183 4.744C37.1769 4.70667 38.1196 4.688 39.1463 4.688C39.5383 4.688 39.7343 4.81867 39.7343 5.08C39.7343 5.248 39.6129 5.388 39.3703 5.5C39.1276 5.59333 38.9129 5.64933 38.7263 5.668C37.7556 5.74267 36.9156 5.92933 36.2063 6.228C35.4969 6.508 34.8343 6.9 34.2183 7.404C33.5836 7.908 32.9303 8.43067 32.2583 8.972C31.6049 9.51333 30.9516 10.0827 30.2983 10.68C29.6449 11.2587 29.0009 11.8467 28.3663 12.444C28.1983 12.612 28.0956 12.7613 28.0583 12.892C28.0396 13.004 28.0676 13.1347 28.1423 13.284C29.0569 15.2067 29.8689 16.7187 30.5783 17.82C31.3063 18.9213 31.9503 19.78 32.5103 20.396C32.8836 20.8253 33.2663 21.1613 33.6583 21.404C34.0503 21.628 34.4703 21.824 34.9183 21.992C35.1236 22.0667 35.3289 22.1507 35.5343 22.244C35.7396 22.3373 35.8423 22.468 35.8423 22.636C35.8423 22.7853 35.7583 22.9067 35.5903 23C35.4223 23.0933 35.1609 23.14 34.8063 23.14C34.2649 23.14 33.7609 23.1213 33.2943 23.084C32.8276 23.0653 32.3703 23.0373 31.9223 23C31.4929 22.9813 31.0076 22.972 30.4663 22.972C30.0556 22.972 29.6636 22.9813 29.2903 23C28.9356 23 28.5716 23.0093 28.1983 23.028C27.8436 23.0467 27.4516 23.056 27.0223 23.056C26.8729 23.056 26.7236 23.0187 26.5743 22.944C26.4436 22.8693 26.3783 22.7667 26.3783 22.636C26.3783 22.4307 26.4623 22.2813 26.6303 22.188C26.8169 22.0947 27.0316 22.0293 27.2743 21.992C27.6103 21.936 27.8063 21.8147 27.8623 21.628C27.9369 21.4413 27.9369 21.236 27.8623 21.012C27.8063 20.7693 27.7316 20.536 27.6383 20.312L25.0343 14.992C24.8663 14.6373 24.6983 14.3853 24.5303 14.236C24.3809 14.0867 24.2596 14.012 24.1663 14.012C24.0543 14.012 23.9796 14.04 23.9423 14.096C23.9049 14.152 23.8676 14.236 23.8303 14.348L22.1223 20.2C21.9543 20.7787 21.9263 21.1987 22.0383 21.46C22.1503 21.7027 22.5329 21.9173 23.1863 22.104C23.3543 22.16 23.4943 22.2253 23.6063 22.3C23.7183 22.356 23.7743 22.4587 23.7743 22.608C23.7743 22.776 23.6623 22.9067 23.4383 23C23.2329 23.0747 23.0276 23.112 22.8223 23.112C22.2436 23.112 21.7396 23.0933 21.3103 23.056C20.8996 23.0187 20.5169 22.9813 20.1623 22.944C19.8263 22.9067 19.4716 22.888 19.0983 22.888C18.5383 22.888 17.9783 22.9347 17.4183 23.028C16.8769 23.1213 16.1489 23.168 15.2343 23.168ZM36.3384 23.084C36.2077 23.084 36.0957 23.056 36.0024 23C35.9091 22.9253 35.8811 22.8227 35.9184 22.692C36.0117 22.3933 36.2637 22.1973 36.6744 22.104C37.4397 21.936 37.9904 21.74 38.3264 21.516C38.6624 21.292 38.9237 20.8813 39.1104 20.284L43.0584 7.572C43.2451 6.97467 43.2544 6.55467 43.0864 6.312C42.9184 6.06933 42.4891 5.85467 41.7984 5.668C41.6304 5.63067 41.5091 5.56533 41.4344 5.472C41.3597 5.36 41.3504 5.22933 41.4064 5.08C41.4251 4.94933 41.5091 4.84667 41.6584 4.772C41.8077 4.69733 41.9477 4.66 42.0784 4.66C42.4891 4.66 42.9277 4.66933 43.3944 4.688C43.8611 4.70667 44.3184 4.73467 44.7664 4.772C45.2331 4.79067 45.6531 4.8 46.0264 4.8C46.3997 4.8 46.8197 4.79067 47.2864 4.772C47.7717 4.75333 48.2664 4.73467 48.7704 4.716C49.2744 4.69733 49.7317 4.688 50.1424 4.688C50.4597 4.688 50.5811 4.81867 50.5064 5.08C50.4691 5.26667 50.3851 5.39733 50.2544 5.472C50.1237 5.54667 49.9464 5.612 49.7224 5.668C49.1811 5.81733 48.7517 5.96667 48.4344 6.116C48.1357 6.26533 47.9024 6.452 47.7344 6.676C47.5664 6.9 47.4264 7.208 47.3144 7.6L43.7304 19.248C43.5251 19.9387 43.4037 20.4613 43.3664 20.816C43.3291 21.1707 43.4037 21.432 43.5904 21.6C43.7957 21.7493 44.1037 21.88 44.5144 21.992C44.9064 22.0853 45.1584 22.1787 45.2704 22.272C45.4011 22.3653 45.4384 22.496 45.3824 22.664C45.3637 22.7947 45.2891 22.8973 45.1584 22.972C45.0464 23.0467 44.9157 23.084 44.7664 23.084C44.3557 23.084 43.8797 23.0653 43.3384 23.028C42.8157 23.0093 42.2931 22.9907 41.7704 22.972C41.2477 22.9533 40.7997 22.944 40.4264 22.944C39.8477 22.944 39.1757 22.9627 38.4104 23C37.6637 23.056 36.9731 23.084 36.3384 23.084ZM47.7884 23.084C47.6578 23.084 47.5364 23.056 47.4244 23C47.2938 22.9253 47.2378 22.8227 47.2564 22.692C47.3124 22.524 47.4244 22.4027 47.5924 22.328C47.7418 22.2533 47.9191 22.188 48.1244 22.132C48.7404 21.964 49.2351 21.7027 49.6084 21.348C49.9818 20.9747 50.2804 20.4893 50.5044 19.892L54.6764 8.636C54.9191 7.964 55.0031 7.42267 54.9284 7.012C54.8538 6.58267 54.6111 6.256 54.2004 6.032C53.8084 5.808 53.2391 5.668 52.4924 5.612C52.2311 5.57467 52.0258 5.50933 51.8764 5.416C51.7458 5.32267 51.6804 5.192 51.6804 5.024C51.6804 4.89333 51.7831 4.79067 51.9884 4.716C52.1938 4.62267 52.3898 4.576 52.5764 4.576C52.9871 4.576 53.4911 4.58533 54.0884 4.604C54.7044 4.62267 55.3391 4.65067 55.9924 4.688C56.6458 4.70667 57.2338 4.716 57.7564 4.716C57.9991 4.716 58.1951 4.772 58.3444 4.884C58.5124 4.97733 58.6338 5.11733 58.7084 5.304L64.2524 17.652C64.2898 17.7267 64.3364 17.8107 64.3924 17.904C64.4671 17.9787 64.5324 18.016 64.5884 18.016C64.7191 18.016 64.8311 17.876 64.9244 17.596C64.9804 17.4653 65.0551 17.2413 65.1484 16.924C65.2604 16.588 65.3911 16.196 65.5404 15.748C65.6898 15.2813 65.8391 14.768 65.9884 14.208C66.1564 13.648 66.3151 13.0693 66.4644 12.472C66.6324 11.8747 66.7818 11.2867 66.9124 10.708C67.0618 10.1107 67.1924 9.54133 67.3044 9C67.5471 7.84267 67.4911 7.04 67.1364 6.592C66.8004 6.12533 66.1284 5.79867 65.1204 5.612C64.7658 5.556 64.5978 5.40667 64.6164 5.164C64.6351 5.052 64.7284 4.95867 64.8964 4.884C65.0644 4.80933 65.2231 4.772 65.3724 4.772C66.1004 4.772 66.7351 4.8 67.2764 4.856C67.8178 4.912 68.2471 4.94 68.5644 4.94C68.9378 4.94 69.2831 4.92133 69.6004 4.884C69.9364 4.84667 70.2911 4.81867 70.6644 4.8C71.0564 4.76267 71.4951 4.744 71.9804 4.744C72.3538 4.744 72.5404 4.87467 72.5404 5.136C72.5404 5.26667 72.4284 5.37867 72.2044 5.472C71.9991 5.54667 71.7844 5.60267 71.5604 5.64C71.1124 5.73333 70.7298 5.864 70.4124 6.032C70.1138 6.18133 69.8431 6.46133 69.6004 6.872C69.3764 7.264 69.1338 7.84267 68.8724 8.608C68.7791 8.92533 68.6578 9.32667 68.5084 9.812C68.3591 10.2973 68.1911 10.8293 68.0044 11.408C67.8178 11.9867 67.6218 12.6027 67.4164 13.256C67.2298 13.8907 67.0244 14.5347 66.8004 15.188C66.5951 15.8413 66.3991 16.476 66.2124 17.092C66.0444 17.708 65.8764 18.2773 65.7084 18.8C65.5404 19.3227 65.4658 19.7427 65.4844 20.06C65.5218 20.3587 65.6524 20.704 65.8764 21.096C65.9698 21.2453 66.0724 21.4133 66.1844 21.6C66.2964 21.768 66.4178 21.9173 66.5484 22.048C66.6978 22.1787 66.8191 22.2813 66.9124 22.356C67.0244 22.412 67.0804 22.496 67.0804 22.608C67.0804 22.776 67.0338 22.888 66.9404 22.944C66.8471 22.9813 66.7164 23 66.5484 23C66.0444 23 65.6244 23.0187 65.2884 23.056C64.9524 23.0933 64.6444 23.1213 64.3644 23.14C64.0844 23.1773 63.7764 23.196 63.4404 23.196C62.9178 23.2147 62.5258 23.1027 62.2644 22.86C62.0031 22.6173 61.7698 22.2347 61.5644 21.712C61.4151 21.3387 61.1818 20.788 60.8644 20.06C60.5658 19.332 60.2298 18.52 59.8564 17.624C59.4831 16.7093 59.0911 15.7853 58.6804 14.852C58.2884 13.9187 57.9244 13.0507 57.5884 12.248C57.2524 11.4267 56.9631 10.7453 56.7204 10.204C56.4964 9.66267 56.3471 9.34533 56.2724 9.252C56.2538 9.17733 56.2071 9.10267 56.1324 9.028C56.0764 8.93467 56.0298 8.888 55.9924 8.888C55.8991 8.888 55.8151 8.96267 55.7404 9.112C55.6658 9.24267 55.6098 9.37333 55.5724 9.504C55.3298 10.12 55.0404 10.876 54.7044 11.772C54.3871 12.6493 54.0604 13.5827 53.7244 14.572C53.4071 15.5613 53.1084 16.5227 52.8284 17.456C52.5671 18.3893 52.3524 19.2107 52.1844 19.92C52.0351 20.592 52.0724 21.0773 52.2964 21.376C52.5391 21.6747 53.0524 21.9173 53.8364 22.104C54.0044 22.1413 54.1538 22.2067 54.2844 22.3C54.4338 22.3747 54.4804 22.496 54.4244 22.664C54.4058 22.7947 54.3031 22.8973 54.1164 22.972C53.9484 23.0467 53.7804 23.084 53.6124 23.084C53.1084 23.084 52.7071 23.0653 52.4084 23.028C52.1284 23.0093 51.8858 23 51.6804 23C51.4751 22.9813 51.2138 22.972 50.8964 22.972C50.4858 22.972 50.0564 22.9813 49.6084 23C49.1604 23.0187 48.7684 23.0373 48.4324 23.056C48.0964 23.0747 47.8818 23.084 47.7884 23.084ZM75.6554 23.392C74.9834 23.392 74.3488 23.3453 73.7514 23.252C73.1728 23.1773 72.6221 23.0373 72.0994 22.832C71.8381 22.72 71.6141 22.636 71.4274 22.58C71.2594 22.5053 71.1474 22.468 71.0914 22.468C70.9608 22.468 70.8301 22.496 70.6994 22.552C70.5874 22.5893 70.4848 22.6267 70.3914 22.664C70.2608 22.7387 70.1301 22.8133 69.9994 22.888C69.8874 22.9627 69.7941 23 69.7194 23C69.6074 23 69.4768 22.9253 69.3274 22.776C69.1594 22.6267 69.0754 22.4867 69.0754 22.356C69.0754 22.2067 69.1781 21.908 69.3834 21.46C69.5888 21.012 69.8034 20.4613 70.0274 19.808C70.2701 19.1547 70.4381 18.4733 70.5314 17.764C70.6434 17.148 70.8861 16.84 71.2594 16.84C71.5021 16.84 71.6514 16.9893 71.7074 17.288C71.7634 17.568 71.7914 18.0067 71.7914 18.604C71.7914 19.2013 71.9128 19.7893 72.1554 20.368C72.3981 20.928 72.7714 21.3853 73.2754 21.74C73.7981 22.0947 74.4514 22.272 75.2354 22.272C76.3554 22.272 77.2234 21.9733 77.8394 21.376C78.4741 20.7787 78.7914 20.032 78.7914 19.136C78.7914 18.7253 78.7168 18.3427 78.5674 17.988C78.4181 17.6147 78.1474 17.204 77.7554 16.756C77.3634 16.308 76.7848 15.748 76.0194 15.076C75.1234 14.2733 74.4421 13.4893 73.9754 12.724C73.5088 11.9587 73.2754 11.016 73.2754 9.896C73.2754 8.85067 73.5648 7.91733 74.1434 7.096C74.7221 6.27467 75.5061 5.62133 76.4954 5.136C77.5034 4.65067 78.6514 4.408 79.9394 4.408C80.5741 4.408 81.1528 4.464 81.6754 4.576C82.2168 4.688 82.6928 4.80933 83.1034 4.94C83.4768 5.052 83.7754 5.14533 83.9994 5.22C84.2234 5.276 84.4474 5.304 84.6714 5.304C84.9328 5.304 85.1661 5.248 85.3714 5.136C85.5021 5.06133 85.6328 5.00533 85.7634 4.968C85.8941 4.912 86.0154 4.884 86.1274 4.884C86.3328 4.884 86.4541 4.94933 86.4914 5.08C86.5288 5.21067 86.4914 5.35067 86.3794 5.5C86.1741 5.76133 85.9501 6.13467 85.7074 6.62C85.4648 7.10533 85.2408 7.63733 85.0354 8.216C84.8301 8.776 84.6528 9.34533 84.5034 9.924C84.4474 10.1293 84.3728 10.2973 84.2794 10.428C84.1861 10.5587 84.0461 10.624 83.8594 10.624C83.6914 10.624 83.5608 10.5307 83.4674 10.344C83.3928 10.1573 83.3554 9.868 83.3554 9.476C83.3554 8.244 83.0474 7.27333 82.4314 6.564C81.8341 5.836 81.0408 5.472 80.0514 5.472C79.3981 5.472 78.8381 5.62133 78.3714 5.92C77.9234 6.2 77.5874 6.57333 77.3634 7.04C77.1394 7.488 77.0274 7.94533 77.0274 8.412C77.0274 8.86 77.1021 9.27067 77.2514 9.644C77.4008 9.99867 77.6621 10.3813 78.0354 10.792C78.4274 11.2027 78.9968 11.7253 79.7434 12.36C80.8634 13.2933 81.6288 14.152 82.0394 14.936C82.4501 15.72 82.6554 16.5787 82.6554 17.512C82.6554 18.464 82.3754 19.3973 81.8154 20.312C81.2554 21.208 80.4528 21.9453 79.4074 22.524C78.3808 23.1027 77.1301 23.392 75.6554 23.392ZM83.5337 23.084C83.4031 23.084 83.2911 23.056 83.1977 23C83.1044 22.9253 83.0764 22.8227 83.1137 22.692C83.2071 22.3933 83.4591 22.1973 83.8697 22.104C84.6351 21.936 85.1857 21.74 85.5217 21.516C85.8577 21.292 86.1191 20.8813 86.3057 20.284L90.2537 7.572C90.4404 6.97467 90.4497 6.55467 90.2817 6.312C90.1137 6.06933 89.6844 5.85467 88.9937 5.668C88.8257 5.63067 88.7044 5.56533 88.6297 5.472C88.5551 5.36 88.5457 5.22933 88.6017 5.08C88.6204 4.94933 88.7044 4.84667 88.8537 4.772C89.0031 4.69733 89.1431 4.66 89.2737 4.66C89.6844 4.66 90.1231 4.66933 90.5897 4.688C91.0564 4.70667 91.5137 4.73467 91.9617 4.772C92.4284 4.79067 92.8484 4.8 93.2217 4.8C93.5951 4.8 94.0151 4.79067 94.4817 4.772C94.9671 4.75333 95.4617 4.73467 95.9657 4.716C96.4697 4.69733 96.9271 4.688 97.3377 4.688C97.6551 4.688 97.7764 4.81867 97.7017 5.08C97.6644 5.26667 97.5804 5.39733 97.4497 5.472C97.3191 5.54667 97.1417 5.612 96.9177 5.668C96.3764 5.81733 95.9471 5.96667 95.6297 6.116C95.3311 6.26533 95.0977 6.452 94.9297 6.676C94.7617 6.9 94.6217 7.208 94.5097 7.6L90.9257 19.248C90.7204 19.9387 90.5991 20.4613 90.5617 20.816C90.5244 21.1707 90.5991 21.432 90.7857 21.6C90.9911 21.7493 91.2991 21.88 91.7097 21.992C92.1017 22.0853 92.3537 22.1787 92.4657 22.272C92.5964 22.3653 92.6337 22.496 92.5777 22.664C92.5591 22.7947 92.4844 22.8973 92.3537 22.972C92.2417 23.0467 92.1111 23.084 91.9617 23.084C91.5511 23.084 91.0751 23.0653 90.5337 23.028C90.0111 23.0093 89.4884 22.9907 88.9657 22.972C88.4431 22.9533 87.9951 22.944 87.6217 22.944C87.0431 22.944 86.3711 22.9627 85.6057 23C84.8591 23.056 84.1684 23.084 83.5337 23.084ZM104.336 23.392C102.973 23.392 101.741 23.168 100.64 22.72C99.5571 22.2533 98.6611 21.5813 97.9518 20.704C97.2611 19.8267 96.8131 18.772 96.6078 17.54C96.4024 16.308 96.5051 14.9267 96.9158 13.396C97.1958 12.164 97.6998 11.0067 98.4278 9.924C99.1558 8.84133 100.07 7.88933 101.172 7.068C102.273 6.24667 103.514 5.60267 104.896 5.136C106.277 4.65067 107.77 4.408 109.376 4.408C110.01 4.408 110.57 4.47333 111.056 4.604C111.56 4.716 111.998 4.83733 112.372 4.968C112.708 5.08 112.978 5.17333 113.184 5.248C113.408 5.304 113.632 5.332 113.856 5.332C113.968 5.332 114.08 5.32267 114.192 5.304C114.304 5.28533 114.425 5.23867 114.556 5.164C114.705 5.07067 114.845 5.00533 114.976 4.968C115.106 4.912 115.228 4.884 115.34 4.884C115.545 4.884 115.657 4.94933 115.676 5.08C115.713 5.21067 115.676 5.35067 115.564 5.5C115.321 5.81733 115.069 6.23733 114.808 6.76C114.546 7.28267 114.304 7.83333 114.08 8.412C113.856 8.99067 113.669 9.51333 113.52 9.98C113.482 10.1667 113.408 10.3253 113.296 10.456C113.202 10.568 113.062 10.624 112.876 10.624C112.484 10.624 112.316 10.2413 112.372 9.476C112.409 8.916 112.4 8.40267 112.344 7.936C112.288 7.46933 112.12 7.04933 111.84 6.676C111.597 6.32133 111.224 6.02267 110.72 5.78C110.234 5.51867 109.712 5.388 109.152 5.388C108.293 5.388 107.444 5.59333 106.604 6.004C105.782 6.396 104.998 6.99333 104.252 7.796C103.524 8.58 102.852 9.56 102.236 10.736C101.638 11.912 101.144 13.2747 100.752 14.824C100.472 15.888 100.378 16.8867 100.472 17.82C100.584 18.7347 100.845 19.5373 101.256 20.228C101.666 20.9 102.198 21.432 102.852 21.824C103.505 22.216 104.242 22.412 105.064 22.412C105.773 22.412 106.37 22.1787 106.856 21.712C107.36 21.2453 107.705 20.7227 107.892 20.144L108.816 17.008C108.872 16.784 108.872 16.588 108.816 16.42C108.778 16.2333 108.629 16.084 108.368 15.972C108.125 15.8787 107.845 15.7947 107.528 15.72C107.21 15.6267 106.94 15.5613 106.716 15.524C106.566 15.4867 106.426 15.4213 106.296 15.328C106.165 15.216 106.118 15.076 106.156 14.908C106.193 14.7773 106.286 14.6747 106.436 14.6C106.585 14.5253 106.744 14.488 106.912 14.488C107.322 14.488 107.789 14.516 108.312 14.572C108.834 14.6093 109.348 14.6467 109.852 14.684C110.356 14.7213 110.794 14.74 111.168 14.74C111.709 14.74 112.25 14.7027 112.792 14.628C113.352 14.5533 114.033 14.516 114.836 14.516C115.153 14.516 115.274 14.656 115.2 14.936C115.162 15.104 115.078 15.2347 114.948 15.328C114.836 15.4027 114.677 15.468 114.472 15.524C113.912 15.636 113.501 15.7947 113.24 16C112.997 16.1867 112.773 16.4667 112.568 16.84C112.418 17.1387 112.25 17.5027 112.064 17.932C111.896 18.3427 111.756 18.7347 111.644 19.108C111.532 19.4627 111.476 19.7053 111.476 19.836C111.476 20.0413 111.522 20.228 111.616 20.396C111.728 20.5453 111.868 20.7227 112.036 20.928C111.886 21.2453 111.513 21.5533 110.916 21.852C110.318 22.132 109.618 22.3933 108.816 22.636C108.032 22.8787 107.229 23.0653 106.408 23.196C105.605 23.3267 104.914 23.392 104.336 23.392ZM114.404 23.084C114.273 23.084 114.171 23.056 114.096 23C114.003 22.9253 113.975 22.8227 114.012 22.692C114.049 22.524 114.133 22.3933 114.264 22.3C114.395 22.2067 114.563 22.1413 114.768 22.104C115.421 21.936 115.897 21.7493 116.196 21.544C116.513 21.3387 116.756 20.956 116.924 20.396L120.928 7.572C121.115 6.956 121.133 6.52667 120.984 6.284C120.853 6.04133 120.48 5.836 119.864 5.668C119.696 5.63067 119.575 5.56533 119.5 5.472C119.425 5.36 119.416 5.22933 119.472 5.08C119.509 4.94933 119.593 4.84667 119.724 4.772C119.873 4.69733 120.013 4.66 120.144 4.66C120.573 4.66 121.003 4.66933 121.432 4.688C121.88 4.70667 122.309 4.73467 122.72 4.772C123.131 4.79067 123.523 4.8 123.896 4.8C124.269 4.8 124.689 4.79067 125.156 4.772C125.641 4.75333 126.136 4.73467 126.64 4.716C127.144 4.69733 127.592 4.688 127.984 4.688C128.32 4.688 128.451 4.81867 128.376 5.08C128.32 5.26667 128.227 5.39733 128.096 5.472C127.984 5.54667 127.816 5.612 127.592 5.668C127.051 5.81733 126.621 5.96667 126.304 6.116C126.005 6.26533 125.772 6.46133 125.604 6.704C125.436 6.928 125.296 7.22667 125.184 7.6L123.616 12.752C123.541 13.0133 123.644 13.144 123.924 13.144H130.812C131.055 13.144 131.213 13.004 131.288 12.724L132.856 7.6C133.024 7.04 133.033 6.648 132.884 6.424C132.735 6.18133 132.324 5.92933 131.652 5.668C131.503 5.612 131.391 5.54667 131.316 5.472C131.241 5.39733 131.223 5.26667 131.26 5.08C131.297 4.94933 131.372 4.856 131.484 4.8C131.615 4.72533 131.755 4.688 131.904 4.688C132.296 4.688 132.735 4.69733 133.22 4.716C133.724 4.73467 134.209 4.75333 134.676 4.772C135.161 4.79067 135.581 4.8 135.936 4.8C136.309 4.8 136.701 4.79067 137.112 4.772C137.541 4.73467 137.98 4.70667 138.428 4.688C138.876 4.66933 139.305 4.66 139.716 4.66C139.847 4.66 139.959 4.69733 140.052 4.772C140.145 4.84667 140.173 4.94933 140.136 5.08C140.043 5.37867 139.781 5.57467 139.352 5.668C138.661 5.836 138.167 6.05067 137.868 6.312C137.588 6.55467 137.355 6.97467 137.168 7.572L133.192 20.368C133.024 20.928 133.024 21.32 133.192 21.544C133.379 21.768 133.752 21.9547 134.312 22.104C134.48 22.1413 134.601 22.2067 134.676 22.3C134.751 22.3933 134.769 22.524 134.732 22.692C134.695 22.8227 134.601 22.9253 134.452 23C134.303 23.056 134.163 23.084 134.032 23.084C133.659 23.084 133.257 23.0653 132.828 23.028C132.399 23.0093 131.96 22.9907 131.512 22.972C131.083 22.9533 130.681 22.944 130.308 22.944C129.953 22.944 129.524 22.9533 129.02 22.972C128.535 22.9907 128.04 23.0093 127.536 23.028C127.051 23.0653 126.603 23.084 126.192 23.084C125.875 23.084 125.744 22.944 125.8 22.664C125.856 22.496 125.949 22.3747 126.08 22.3C126.211 22.2253 126.379 22.16 126.584 22.104C127.331 21.8987 127.872 21.6747 128.208 21.432C128.544 21.1893 128.796 20.7973 128.964 20.256L130.588 14.88C130.644 14.7493 130.663 14.6467 130.644 14.572C130.625 14.4787 130.551 14.432 130.42 14.432H123.476C123.196 14.432 123.009 14.5813 122.916 14.88L121.292 20.228C121.124 20.8067 121.133 21.208 121.32 21.432C121.525 21.6373 121.945 21.8613 122.58 22.104C122.748 22.16 122.869 22.2253 122.944 22.3C123.019 22.3747 123.028 22.496 122.972 22.664C122.953 22.7947 122.888 22.8973 122.776 22.972C122.664 23.0467 122.524 23.084 122.356 23.084C121.945 23.084 121.497 23.0653 121.012 23.028C120.527 23.0093 120.041 22.9907 119.556 22.972C119.089 22.9533 118.669 22.944 118.296 22.944C117.923 22.944 117.503 22.9533 117.036 22.972C116.588 22.9907 116.131 23.0093 115.664 23.028C115.216 23.0653 114.796 23.084 114.404 23.084ZM140.676 23.084C140.545 23.084 140.424 23.056 140.312 23C140.2 22.9253 140.153 22.8227 140.172 22.692C140.228 22.524 140.33 22.3933 140.48 22.3C140.629 22.2067 140.816 22.1413 141.04 22.104C141.786 21.9547 142.346 21.7587 142.72 21.516C143.112 21.2733 143.401 20.8533 143.588 20.256L147.256 8.356C147.573 7.27333 147.722 6.58267 147.704 6.284C147.685 5.98533 147.517 5.836 147.2 5.836H145.884C145.23 5.836 144.586 6.01333 143.952 6.368C143.336 6.72267 142.804 7.13333 142.356 7.6C142.225 7.74933 142.038 7.94533 141.796 8.188C141.572 8.412 141.338 8.61733 141.096 8.804C140.853 8.99067 140.629 9.084 140.424 9.084C140.274 9.084 140.181 9.03733 140.144 8.944C140.125 8.85067 140.125 8.72933 140.144 8.58C140.181 8.48667 140.228 8.37467 140.284 8.244C140.358 8.09467 140.442 7.95467 140.536 7.824C141.077 7.17067 141.488 6.58267 141.768 6.06C142.066 5.51867 142.337 4.92133 142.58 4.268C142.654 4.02533 142.757 3.848 142.888 3.736C143.018 3.624 143.168 3.568 143.336 3.568C143.522 3.568 143.718 3.652 143.924 3.82C144.129 3.96933 144.316 4.10933 144.484 4.24C144.652 4.33333 144.82 4.42667 144.988 4.52C145.156 4.61333 145.398 4.688 145.716 4.744C146.052 4.8 146.528 4.828 147.144 4.828H154.9C155.665 4.828 156.262 4.8 156.692 4.744C157.121 4.688 157.438 4.62267 157.644 4.548C157.849 4.47333 157.989 4.41733 158.064 4.38C158.418 4.24933 158.708 4.09067 158.932 3.904C159.174 3.69867 159.408 3.596 159.632 3.596C159.874 3.596 159.949 3.736 159.856 4.016C159.837 4.10933 159.809 4.212 159.772 4.324C159.734 4.41733 159.688 4.51067 159.632 4.604C159.296 5.164 158.988 5.74267 158.708 6.34C158.446 6.93733 158.213 7.58133 158.008 8.272C157.914 8.57067 157.812 8.804 157.7 8.972C157.606 9.12133 157.476 9.196 157.308 9.196C157.121 9.196 156.99 9.12133 156.916 8.972C156.86 8.804 156.832 8.54267 156.832 8.188C156.813 7.42267 156.654 6.844 156.356 6.452C156.057 6.04133 155.516 5.836 154.732 5.836H153.332C153.052 5.836 152.809 5.90133 152.604 6.032C152.417 6.144 152.24 6.38667 152.072 6.76C151.922 7.11467 151.736 7.628 151.512 8.3L147.844 20.228C147.676 20.788 147.704 21.1987 147.928 21.46C148.17 21.7027 148.618 21.9173 149.272 22.104C149.44 22.16 149.57 22.2253 149.664 22.3C149.757 22.3747 149.785 22.496 149.748 22.664C149.71 22.7947 149.626 22.8973 149.496 22.972C149.365 23.0467 149.225 23.084 149.076 23.084C148.665 23.084 148.198 23.0653 147.676 23.028C147.172 23.0093 146.668 22.9907 146.164 22.972C145.678 22.9533 145.249 22.944 144.876 22.944C144.502 22.944 144.064 22.9533 143.56 22.972C143.056 22.9907 142.552 23.0093 142.048 23.028C141.544 23.0653 141.086 23.084 140.676 23.084ZM169.546 13.7056C169.423 12.9776 169.098 12.1936 168.572 11.3536C168.045 10.5024 167.295 9.7128 166.321 8.9848C165.357 8.2568 164.394 7.792 163.431 7.5904V6.8848C164.383 6.6608 165.296 6.2464 166.169 5.6416C167.054 5.0256 167.793 4.2864 168.387 3.424C168.992 2.5392 169.378 1.6656 169.546 0.803199H170.252C170.353 1.3632 170.554 1.94 170.857 2.5336C171.159 3.116 171.545 3.676 172.016 4.2136C172.497 4.74 173.035 5.216 173.629 5.6416C174.513 6.2688 175.415 6.6832 176.333 6.8848V7.5904C175.717 7.7136 175.079 7.9656 174.418 8.3464C173.769 8.7272 173.164 9.1808 172.604 9.7072C172.044 10.2224 171.585 10.7656 171.226 11.3368C170.7 12.1768 170.375 12.9664 170.252 13.7056H169.546Z" fill="#7C2808"/>
</svg>
